<svg width="1280" height="720" xmlns="http://www.w3.org/2000/svg" xmlns:xlink="http://www.w3.org/1999/xlink" overflow="hidden"><defs><clipPath id="clip0"><rect x="0" y="0" width="1280" height="720"/></clipPath></defs><g clip-path="url(#clip0)"><rect x="0" y="0" width="1280" height="720" fill="#FFFFFF"/><rect x="0" y="0" width="33" height="5" stroke="#E8E8E8" stroke-width="2" stroke-miterlimit="8" fill="#E8E8E8"/><rect x="-3.00648e-15" y="0" width="5" height="33" stroke="#E8E8E8" stroke-width="2" stroke-miterlimit="8" fill="#E8E8E8"/><rect x="0" y="0" width="33" height="5" stroke="#E8E8E8" stroke-width="2" stroke-miterlimit="8" fill="#E8E8E8" transform="matrix(-1 0 0 1 84 0)"/><rect x="0" y="0" width="33" height="5" stroke="#E8E8E8" stroke-width="2" stroke-miterlimit="8" fill="#E8E8E8" transform="matrix(-6.12323e-17 -1 -1 6.12323e-17 84 33)"/><rect x="0" y="0" width="33" height="5" stroke="#E8E8E8" stroke-width="2" stroke-miterlimit="8" fill="#E8E8E8" transform="matrix(-6.12323e-17 -1 -1 6.12323e-17 84 83)"/><rect x="0" y="0" width="33" height="6" stroke="#E8E8E8" stroke-width="2" stroke-miterlimit="8" fill="#E8E8E8" transform="matrix(1 -1.22465e-16 -1.22465e-16 -1 51 83)"/><rect x="-3.00648e-15" y="50" width="5" height="33" stroke="#E8E8E8" stroke-width="2" stroke-miterlimit="8" fill="#E8E8E8"/><rect x="0" y="77" width="33" height="6" stroke="#E8E8E8" stroke-width="2" stroke-miterlimit="8" fill="#E8E8E8"/></g></svg>